<?xml version="1.0" encoding="iso-8859-1"?>
<!-- Generator: Adobe Illustrator 19.0.0, SVG Export Plug-In . SVG Version: 6.00 Build 0)  -->
<svg version="1.1" id="Layer_1" xmlns="http://www.w3.org/2000/svg" xmlns:xlink="http://www.w3.org/1999/xlink" x="0px" y="0px"
	 viewBox="0 0 511.999 511.999" style="enable-background:new 0 0 511.999 511.999;" xml:space="preserve">
<g>
	<g>
		<path d="M468.549,79.082h-16.923l-26.2-73.531l-206.36,73.531H43.45C19.492,79.082,0,98.574,0,122.532v340.464
			c0,23.959,19.492,43.451,43.45,43.451h425.099c23.959,0,43.45-19.492,43.45-43.451v-105V227.534V122.532
			C512,98.574,492.508,79.082,468.549,79.082z M406.982,44.414l12.353,34.669H309.688L406.982,44.414z M481.583,462.997
			c0,7.187-5.847,13.034-13.033,13.034H43.45c-7.187,0-13.033-5.847-13.033-13.034V122.532c0-7.187,5.847-13.033,13.033-13.033
			h90.252h328.763h6.084c7.187,0,13.033,5.847,13.033,13.033v105.001H335.367c-23.959,0-43.45,19.492-43.45,43.451v43.562
			c0,23.959,19.492,43.45,43.45,43.45h146.216V462.997z M481.583,327.579H335.367c-7.187,0-13.033-5.847-13.033-13.033v-43.562
			c0-7.187,5.847-13.034,13.033-13.034h146.216V327.579z"/>
	</g>
</g>
<g>
	<g>
		<circle cx="357.342" cy="292.765" r="20.094"/>
	</g>
</g>
<g>
</g>
<g>
</g>
<g>
</g>
<g>
</g>
<g>
</g>
<g>
</g>
<g>
</g>
<g>
</g>
<g>
</g>
<g>
</g>
<g>
</g>
<g>
</g>
<g>
</g>
<g>
</g>
<g>
</g>
</svg>
